<svg xmlns="http://www.w3.org/2000/svg" version="1.1" xmlns:xlink="http://www.w3.org/1999/xlink" width="512" height="512" x="0" y="0" viewBox="0 0 512 512" style="enable-background:new 0 0 512 512" xml:space="preserve" class=""><g><path d="M509.972 500.189 11.811 2.029A6.91 6.91 0 0 0 4.27.529 6.924 6.924 0 0 0 0 6.921v498.16A6.92 6.92 0 0 0 6.919 512h498.162a6.919 6.919 0 0 0 4.891-11.811zm-110.668-2.027v-49.576a6.92 6.92 0 0 0-13.838 0v49.576h-22.669v-21.329a6.92 6.92 0 0 0-13.838 0v21.329h-22.671v-49.576a6.92 6.92 0 0 0-13.838 0v49.576h-22.669v-21.329a6.92 6.92 0 0 0-13.838 0v21.329h-22.669v-49.576a6.92 6.92 0 0 0-13.838 0v49.576h-22.669v-21.329a6.92 6.92 0 0 0-13.838 0v21.329H180.26v-49.576a6.92 6.92 0 0 0-13.838 0v49.576h-22.669v-21.329a6.92 6.92 0 0 0-13.838 0v21.329h-22.678v-49.576a6.92 6.92 0 0 0-13.838 0v49.576H13.838v-79.563h49.579a6.92 6.92 0 0 0 0-13.838H13.838V382.09h21.329a6.92 6.92 0 0 0 0-13.838H13.838v-22.667h49.579a6.92 6.92 0 0 0 0-13.838H13.838v-22.671h21.329a6.92 6.92 0 0 0 0-13.838H13.838v-22.667h49.579a6.92 6.92 0 0 0 0-13.838H13.838v-22.671h21.329a6.92 6.92 0 0 0 0-13.838H13.838V199.56h49.579a6.92 6.92 0 0 0 0-13.838H13.838v-22.671h21.329a6.92 6.92 0 0 0 0-13.838H13.838v-22.68h49.579a6.92 6.92 0 0 0 0-13.838H13.838V23.624l474.54 474.539h-89.074zm-298.989-79.558h179.281a6.919 6.919 0 0 0 4.892-11.81L105.207 227.51a6.911 6.911 0 0 0-7.541-1.5 6.924 6.924 0 0 0-4.27 6.392v179.283a6.92 6.92 0 0 0 6.919 6.919zm6.919-169.499 155.66 155.662h-155.66z" fill="#000000" opacity="1" data-original="#000000" class=""></path></g></svg>