<svg xmlns="http://www.w3.org/2000/svg" version="1.1" xmlns:xlink="http://www.w3.org/1999/xlink" width="512" height="512" x="0" y="0" viewBox="0 0 512 512" style="enable-background:new 0 0 512 512" xml:space="preserve"><g><path d="M161.728 42.893a231.542 231.542 0 0 1 73.296-18.931c2.925-.261 5.446 2.05 5.446 4.987v15.736c0 14.102-9.945 26.132-23.734 29.088a184.964 184.964 0 0 0-37.851 12.507c-1.579.719-1.938 2.807-.711 4.034l27.658 27.666c2.533 2.534 1.658 6.835-1.668 8.164-35.51 14.189-63.836 42.523-78.011 78.034-1.329 3.328-5.631 4.204-8.165 1.67l-27.673-27.673c-1.227-1.227-3.316-.869-4.035.711a185.181 185.181 0 0 0-12.505 37.851c-2.957 13.788-14.986 23.733-29.088 23.733H28.949c-2.937 0-5.248-2.521-4.987-5.446 6.598-73.96 47.76-137.972 107.222-175.771" style="stroke-width:15;stroke-linecap:round;stroke-linejoin:round;stroke-miterlimit:10;" fill="none" stroke="#000000" stroke-width="15" stroke-linecap="round" stroke-linejoin="round" stroke-miterlimit="10" data-original="#000000"></path><circle cx="43.693" cy="43.693" r="36.193" style="stroke-width:15;stroke-linecap:round;stroke-linejoin:round;stroke-miterlimit:10;" fill="none" stroke="#000000" stroke-width="15" stroke-linecap="round" stroke-linejoin="round" stroke-miterlimit="10" data-original="#000000"></circle><path d="M438.227 216.736a184.964 184.964 0 0 0-12.507-37.851c-.719-1.579-2.807-1.938-4.034-.711l-27.666 27.658c-2.534 2.533-6.835 1.658-8.164-1.668-14.189-35.51-42.523-63.836-78.034-78.011-3.328-1.329-4.204-5.631-1.67-8.165l27.673-27.673c1.227-1.227.869-3.316-.711-4.035a185.181 185.181 0 0 0-37.851-12.505c-13.788-2.957-23.733-14.986-23.733-29.088V28.949c0-2.937 2.521-5.248 5.446-4.987 111.926 9.984 201.068 99.126 211.062 211.062.261 2.925-2.05 5.446-4.987 5.446h-15.736c-14.101 0-26.132-9.945-29.088-23.734z" style="stroke-width:15;stroke-linecap:round;stroke-linejoin:round;stroke-miterlimit:10;" fill="none" stroke="#000000" stroke-width="15" stroke-linecap="round" stroke-linejoin="round" stroke-miterlimit="10" data-original="#000000"></path><circle cx="468.307" cy="43.693" r="36.193" style="stroke-width:15;stroke-linecap:round;stroke-linejoin:round;stroke-miterlimit:10;" fill="none" stroke="#000000" stroke-width="15" stroke-linecap="round" stroke-linejoin="round" stroke-miterlimit="10" data-original="#000000"></circle><path d="M295.264 438.227a184.964 184.964 0 0 0 37.851-12.507c1.579-.719 1.938-2.807.711-4.034l-27.658-27.666c-2.533-2.534-1.658-6.835 1.668-8.164 35.51-14.189 63.836-42.523 78.011-78.034 1.329-3.328 5.631-4.204 8.165-1.67l27.673 27.673c1.227 1.227 3.316.869 4.035-.711a185.181 185.181 0 0 0 12.505-37.851c2.957-13.788 14.986-23.733 29.088-23.733h15.738c2.937 0 5.248 2.521 4.987 5.446-9.984 111.926-99.126 201.068-211.062 211.062-2.925.261-5.446-2.05-5.446-4.987v-15.736c0-14.101 9.945-26.132 23.734-29.088z" style="stroke-width:15;stroke-linecap:round;stroke-linejoin:round;stroke-miterlimit:10;" fill="none" stroke="#000000" stroke-width="15" stroke-linecap="round" stroke-linejoin="round" stroke-miterlimit="10" data-original="#000000"></path><circle cx="468.307" cy="468.307" r="36.193" style="stroke-width:15;stroke-linecap:round;stroke-linejoin:round;stroke-miterlimit:10;" fill="none" stroke="#000000" stroke-width="15" stroke-linecap="round" stroke-linejoin="round" stroke-miterlimit="10" data-original="#000000"></circle><path d="M153.071 350.575c14.062 15.293 31.489 27.442 51.105 35.272 3.328 1.329 4.204 5.631 1.67 8.165l-27.673 27.673c-1.227 1.227-.869 3.316.711 4.035a185.181 185.181 0 0 0 37.851 12.505c13.788 2.957 23.733 14.986 23.733 29.088v15.738c0 2.937-2.521 5.248-5.446 4.987-111.926-9.984-201.068-99.126-211.062-211.062-.261-2.925 2.05-5.446 4.987-5.446h15.736c14.102 0 26.132 9.945 29.088 23.734a184.964 184.964 0 0 0 12.507 37.851c.719 1.579 2.807 1.938 4.034.711l27.666-27.658c2.534-2.533 6.835-1.658 8.164 1.668a139.285 139.285 0 0 0 6.582 14.12" style="stroke-width:15;stroke-linecap:round;stroke-linejoin:round;stroke-miterlimit:10;" fill="none" stroke="#000000" stroke-width="15" stroke-linecap="round" stroke-linejoin="round" stroke-miterlimit="10" data-original="#000000"></path><circle cx="43.693" cy="468.307" r="36.193" style="stroke-width:15;stroke-linecap:round;stroke-linejoin:round;stroke-miterlimit:10;" fill="none" stroke="#000000" stroke-width="15" stroke-linecap="round" stroke-linejoin="round" stroke-miterlimit="10" data-original="#000000"></circle><path d="m303.58 314.711 35.396-30.741h-.001c13.268-11.522 21.241-28.982 19.781-48.243-2.161-28.519-25.463-51.483-54.008-53.266-17.905-1.119-34.193 5.909-45.52 17.729a4.442 4.442 0 0 1-6.456 0c-11.327-11.82-27.615-18.847-45.52-17.729-28.545 1.783-51.847 24.748-54.008 53.266-1.46 19.262 6.513 36.721 19.781 48.243h-.001l77.225 67.069a8.772 8.772 0 0 0 11.503 0l15.034-13.057" style="stroke-width:15;stroke-linecap:round;stroke-linejoin:round;stroke-miterlimit:10;" fill="none" stroke="#000000" stroke-width="15" stroke-linecap="round" stroke-linejoin="round" stroke-miterlimit="10" data-original="#000000"></path></g></svg>