<svg xmlns="http://www.w3.org/2000/svg" version="1.1" xmlns:xlink="http://www.w3.org/1999/xlink" width="512" height="512" x="0" y="0" viewBox="0 0 682.667 682.667" style="enable-background:new 0 0 512 512" xml:space="preserve" class="hovered-paths"><g><defs><clipPath id="a" clipPathUnits="userSpaceOnUse"><path d="M0 512h512V0H0Z" fill="#000000" opacity="1" data-original="#000000"></path></clipPath></defs><g clip-path="url(#a)" transform="matrix(1.33333 0 0 -1.33333 0 682.667)"><path d="M0 0c0 141.385 114.615 256 256 256S512 141.385 512 0 397.385-256 256-256 0-141.385 0 0" style="fill-opacity:1;fill-rule:nonzero;stroke:none" transform="translate(0 256)" fill="#99e6fc" data-original="#99e6fc" class=""></path><path d="M0 0c0 6.132-.216 12.214-.64 18.238l-104.434 104.435L-448.697 7l77.775-77.775-25.132-108.989 65.084-65.083C-307.259-252.099-282.085-256-256-256-114.615-256 0-141.385 0 0" style="fill-opacity:1;fill-rule:nonzero;stroke:none" transform="translate(512 256)" fill="#60b8fe" data-original="#60b8fe" class="hovered-path"></path><path d="M0 0v-373.527h143.279l92.349 229.798L143.279 0Z" style="fill-opacity:1;fill-rule:nonzero;stroke:none" transform="translate(115.946 449.764)" fill="#ffffff" data-original="#ffffff"></path><path d="m0 0-44.058 19.982-27.033 51.11h-76.61v-373.528H0Z" style="fill-opacity:1;fill-rule:nonzero;stroke:none" transform="translate(406.926 378.672)" fill="#e8e8e8" data-original="#e8e8e8" class=""></path><path d="M277.791 263H63.303v124.676h214.488z" style="fill-opacity:1;fill-rule:nonzero;stroke:none" fill="#e23d71" data-original="#e23d71"></path><path d="M299.5 387.676h-40.276V263H299.5Z" style="fill-opacity:1;fill-rule:nonzero;stroke:none" fill="#aa1d57" data-original="#aa1d57"></path><path d="M0 0v15h-37.089v-69.5h15v27.766h20.334v15h-20.334V0Z" style="fill-opacity:1;fill-rule:nonzero;stroke:none" transform="translate(243.612 345.494)" fill="#ffffff" data-original="#ffffff"></path><path d="M0 0a842.582 842.582 0 0 0-7.65-.076l-.209 38.238h7.548c13.005 0 14.016-14.649 14.016-19.14C13.705 6.047 6.821.119 0 0m-.311 53.162h-22.603v-.097h-.027l.041-7.548c.004-1.755.039-20.646.039-26.436 0-7.406.069-26.725.069-26.725l.027-7.502 7.502.03c.456.002 11.221.043 15.525.118 16.481.288 28.443 14.596 28.443 34.02 0 20.42-11.661 34.14-29.016 34.14" style="fill-opacity:1;fill-rule:nonzero;stroke:none" transform="translate(172.142 306.11)" fill="#ffffff" data-original="#ffffff"></path><path d="M0 0c-1.812 0-4.841-.013-7.722-.027-.014 2.988-.027 6.155-.027 8.02 0 1.587-.008 4.861-.016 7.993H0c4.498 0 8.297-3.661 8.297-7.993C8.297 3.66 4.498 0 0 0m0 30.986h-22.787v-69.902h15v23.889C-4.89-15.013-1.824-15 0-15 12.846-15 23.297-4.686 23.297 7.993c0 12.679-10.451 22.993-23.297 22.993" style="fill-opacity:1;fill-rule:nonzero;stroke:none" transform="translate(120.27 329.098)" fill="#ffffff" data-original="#ffffff"></path><path d="m0 0-71.091 71.092V0Z" style="fill-opacity:1;fill-rule:nonzero;stroke:none" transform="translate(406.926 378.672)" fill="#999999" data-original="#999999"></path><path d="M0 0c0 44.286 35.901 80.188 80.188 80.188S160.376 44.286 160.376 0c0-44.287-35.901-80.188-80.188-80.188S0-44.287 0 0" style="fill-opacity:1;fill-rule:nonzero;stroke:none" transform="translate(279.363 138.03)" fill="#f27944" data-original="#f27944"></path><path d="M0 0v-160.377c44.287 0 80.188 35.901 80.188 80.189C80.188-35.902 44.287 0 0 0" style="fill-opacity:1;fill-rule:nonzero;stroke:none" transform="translate(359.55 218.219)" fill="#d35429" data-original="#d35429" class=""></path><path d="M0 0v40.177h-37.833V0h-19.084l38-53.141L19.083 0z" style="fill-opacity:1;fill-rule:nonzero;stroke:none" transform="translate(378.467 141.97)" fill="#ffffff" data-original="#ffffff"></path><path d="M0 0h-19.083v40.177H-38v-93.318z" style="fill-opacity:1;fill-rule:nonzero;stroke:none" transform="translate(397.55 141.97)" fill="#e2e2e2" data-original="#e2e2e2"></path></g></g></svg>