
<svg xmlns="http://www.w3.org/2000/svg" version="1.1" xmlns:xlink="http://www.w3.org/1999/xlink" width="512" height="512" x="0" y="0" viewBox="0 0 66 66" style="enable-background:new 0 0 512 512" xml:space="preserve" class=""><g><path d="M35.073 22.782c0 2.947 2.393 5.346 5.335 5.346a5.352 5.352 0 0 0 5.345-5.346c0-2.941-2.398-5.335-5.345-5.335a5.342 5.342 0 0 0-5.335 5.335zm8.68 0a3.35 3.35 0 0 1-3.345 3.346 3.344 3.344 0 0 1-3.335-3.346 3.339 3.339 0 0 1 3.335-3.335 3.344 3.344 0 0 1 3.345 3.335z" fill="#000000" opacity="1" data-original="#000000"></path><path d="M63.474 45.723c-1.202-1.948-3.654-2.647-5.646-1.654l-10.07 4.25V35.71a2.822 2.822 0 0 0-2.82-2.818h-9.05a2.822 2.822 0 0 0-2.82 2.818v9.102h-2.501c-1.385 0-2.736-.267-4.016-.792l-3.622-1.486v-17.19a3.478 3.478 0 0 0 1.17-.63l15.865-13.49 16.85 13.561c.332.258.698.443 1.083.564V40a1 1 0 1 0 2 0V25.337a3.533 3.533 0 0 0 1.9-1.446c1.086-1.668.72-4-.806-5.188l-11.224-9.01a1 1 0 0 0-1.252 1.56l11.235 9.02c.725.564.895 1.722.372 2.527-.476.731-1.44.905-2.068.417l-17.48-14.07a.999.999 0 0 0-1.275.018L22.817 23.181c-.313.257-.687.37-1.072.314-.403-.056-.763-.29-1.015-.658-.544-.79-.4-1.951.323-2.548L39.018 5.056c.526-.433 1.212-.442 1.73-.036l3.82 3.066a1.001 1.001 0 0 0 1.253-1.56L41.989 3.45a3.384 3.384 0 0 0-4.252.07l-8.111 6.878V6.812c1.319-.22 2.334-1.424 2.334-2.882C31.96 2.315 30.72 1 29.197 1H22.27c-1.523 0-2.764 1.314-2.764 2.929 0 1.458 1.016 2.661 2.335 2.882v10.186l-2.071 1.757c-1.506 1.24-1.815 3.58-.69 5.216a3.49 3.49 0 0 0 1.848 1.37v16.373l-2.235-.917v-1.11a3.43 3.43 0 0 0-3.426-3.426H5.294a3.43 3.43 0 0 0-3.425 3.425v5.378a1 1 0 1 0 2 0v-5.377c0-.787.64-1.426 1.425-1.426h9.974c.786 0 1.426.64 1.426 1.426v18.126c0 .785-.64 1.424-1.426 1.424H5.294c-.786 0-1.425-.64-1.425-1.424V50.25a1 1 0 1 0-2 0v7.562a3.43 3.43 0 0 0 3.425 3.424h9.974a3.415 3.415 0 0 0 2.95-1.714l12.97 5.105a9.425 9.425 0 0 0 2.618.371c1.334 0 2.671-.283 3.927-.847l7.642-3.884a1 1 0 0 0-.907-1.784l-7.597 3.865c-1.61.72-3.43.85-5.037.387l-13.14-5.174V42.958l7.098 2.913a12.51 12.51 0 0 0 4.775.942h7.722a2.641 2.641 0 0 1 2.637 2.637c0 1.09-.665 2.029-1.61 2.43l-.004.002c-.315.133-.66.207-1.023.207H27.172a1 1 0 1 0 0 2H38.29c.643 0 1.256-.133 1.814-.371l18.559-7.832a2.39 2.39 0 0 1 3.11.887c.364.59.457 1.307.254 1.968s-.682 1.203-1.358 1.507l-10.926 5.555a1 1 0 0 0 .906 1.783l10.883-5.534a4.397 4.397 0 0 0 2.406-2.724 4.397 4.397 0 0 0-.463-3.605zM27.626 12.094l-3.784 3.208V6.857h3.784zM21.507 3.93c0-.512.343-.929.764-.929h6.926c.42 0 .763.417.763.929s-.342.927-.763.927H22.27c-.42 0-.764-.416-.764-.927zm24.25 45.232-2.93 1.237c.064-.307.1-.624.1-.949a4.642 4.642 0 0 0-4.638-4.638h-3.22v-9.101a.82.82 0 0 1 .82-.818h9.049a.82.82 0 0 1 .82.818v13.451z" fill="#000000" opacity="1" data-original="#000000"></path><path d="M13.94 44.122a3.66 3.66 0 1 0-3.663 3.663 3.668 3.668 0 0 0 3.663-3.663zm-5.317 0c0-.913.742-1.655 1.654-1.655a1.66 1.66 0 0 1 1.663 1.655c0 .917-.746 1.663-1.663 1.663a1.66 1.66 0 0 1-1.655-1.663z" fill="#000000" opacity="1" data-original="#000000"></path></g></svg>