<svg xmlns="http://www.w3.org/2000/svg" version="1.1" xmlns:xlink="http://www.w3.org/1999/xlink" width="512" height="512" x="0" y="0" viewBox="0 0 512 512" style="enable-background:new 0 0 512 512" xml:space="preserve" class=""><g><path d="M104.957 85.512h133.988c4.143 0 7.5-3.358 7.5-7.5s-3.357-7.5-7.5-7.5H104.957c-4.143 0-7.5 3.358-7.5 7.5s3.357 7.5 7.5 7.5zM141.512 135.519a7.5 7.5 0 0 0 7.5 7.5h133.65c4.143 0 7.5-3.358 7.5-7.5s-3.357-7.5-7.5-7.5h-133.65a7.5 7.5 0 0 0-7.5 7.5zM61.24 143.019h62.155c4.143 0 7.5-3.358 7.5-7.5s-3.357-7.5-7.5-7.5H61.24a7.5 7.5 0 0 0 0 15zM61.24 179.45h141.231c4.143 0 7.5-3.358 7.5-7.5s-3.357-7.5-7.5-7.5H61.24a7.5 7.5 0 0 0 0 15zM61.24 373.564h89.999c4.143 0 7.5-3.358 7.5-7.5s-3.357-7.5-7.5-7.5H61.24a7.5 7.5 0 0 0 0 15z" fill="#000000" opacity="1" data-original="#000000" class=""></path><path d="m508.178 455.987-19.08-19.079c-2.928-2.93-7.677-2.929-10.606 0s-2.929 7.678.001 10.606l17.714 17.714-23.438 23.438-66.19-66.192 23.438-23.438 23.729 23.729a7.5 7.5 0 0 0 10.607-10.606l-25.095-25.094c-3.931-3.931-9.759-4.816-14.559-2.682l-20.844-20.845c27.018-39.546 28.802-91.264 5.365-132.424 1.572-.58 3.239-1.153 5.021-1.729a10.404 10.404 0 0 0 7.221-9.932 10.404 10.404 0 0 0-7.222-9.93c-19.995-6.457-26.076-12.538-32.532-32.534a10.4 10.4 0 0 0-9.086-7.186V49.328c0-7.206-5.862-13.069-13.068-13.069h-15.65v-15.65c0-7.206-5.862-13.069-13.068-13.069H13.068C5.862 7.54 0 13.403 0 20.609v429.949c0 7.206 5.862 13.069 13.068 13.069h15.65v15.65c0 7.206 5.862 13.068 13.068 13.068H111c4.143 0 7.5-3.358 7.5-7.5s-3.357-7.5-7.5-7.5H43.719v-13.718h287.115c7.206 0 13.068-5.863 13.068-13.069v-40.249a124.419 124.419 0 0 0 13.719-6.005v73.041H146c-4.143 0-7.5 3.358-7.5 7.5s3.357 7.5 7.5 7.5h213.553c7.206 0 13.068-5.862 13.068-13.068v-81.421l19.302 19.302c-2.133 4.8-1.248 10.627 2.682 14.558l68.922 68.922c2.548 2.548 5.895 3.822 9.242 3.822s6.693-1.274 9.241-3.822l26.169-26.169c5.095-5.095 5.095-13.387-.001-18.482zM398.177 219.454c-12.925 5.853-20.549 13.478-26.4 26.401-5.853-12.924-13.477-20.548-26.4-26.401 12.924-5.852 20.548-13.476 26.4-26.401 5.851 12.925 13.475 20.548 26.4 26.401zm-68.864 9.931c19.994 6.457 26.075 12.538 32.532 32.532a10.403 10.403 0 0 0 9.929 7.221h.002c2.042 0 3.969-.59 5.603-1.627 9.302 28.15 2.803 60.422-19.551 82.776-31.573 31.573-82.949 31.573-114.521 0-31.573-31.574-31.573-82.948 0-114.521 15.294-15.295 35.63-23.718 57.26-23.718 7.7 0 15.23 1.081 22.431 3.152a10.445 10.445 0 0 0-.906 4.253c0 4.545 2.901 8.537 7.221 9.932zm-.411 219.242H15V22.54h313.902v68.463c0 4.142 3.357 7.5 7.5 7.5s7.5-3.358 7.5-7.5V51.259h13.719v130.432a123.656 123.656 0 0 0-13.719-6.035v-49.653c0-4.142-3.357-7.5-7.5-7.5s-7.5 3.358-7.5 7.5v45.185a125.9 125.9 0 0 0-39.6-2.721 7.495 7.495 0 0 0-6.639-4.017h-53.46c-4.143 0-7.5 3.358-7.5 7.5s3.357 7.5 7.5 7.5h18.865c-11.611 5.375-22.413 12.566-32.054 21.43H61.24c-4.143 0-7.5 3.358-7.5 7.5s3.357 7.5 7.5 7.5h140.889a124.018 124.018 0 0 0-18.714 33.395H61.24c-4.143 0-7.5 3.358-7.5 7.5s3.357 7.5 7.5 7.5h117.651a125.85 125.85 0 0 0-3.11 21.43H61.24c-4.143 0-7.5 3.358-7.5 7.5s3.357 7.5 7.5 7.5h114.562a125.72 125.72 0 0 0 3.171 21.43H61.24c-4.143 0-7.5 3.358-7.5 7.5s3.357 7.5 7.5 7.5h122.303a124.057 124.057 0 0 0 10.496 21.43h-17.183c-4.143 0-7.5 3.358-7.5 7.5s3.357 7.5 7.5 7.5h28.033a125.857 125.857 0 0 0 7.243 7.897 125.402 125.402 0 0 0 16.015 13.533H61.24c-4.143 0-7.5 3.358-7.5 7.5s3.357 7.5 7.5 7.5h195.068a125.59 125.59 0 0 0 44.259 8.04c9.513 0 19.023-1.089 28.335-3.241zm-106.163-77.772c-42.915-42.915-42.915-112.742 0-155.657 20.789-20.789 48.429-32.238 77.828-32.238 18.502 0 36.306 4.537 52.145 13.081-3.222 3.97-7.225 6.875-12.724 9.426-12.231-5.514-25.603-8.419-39.421-8.419-25.637 0-49.739 9.984-67.867 28.112-37.421 37.422-37.421 98.312 0 135.734 18.711 18.711 43.289 28.066 67.867 28.066s49.156-9.355 67.868-28.066c29.946-29.948 35.893-74.909 17.906-110.859 2.557-5.178 5.502-8.972 9.516-12.05 24.294 42.082 18.493 96.915-17.462 132.87-42.914 42.914-112.742 42.914-155.656 0zm160.288 16.194a126.238 126.238 0 0 0 5.975-5.587c1.944-1.944 3.783-3.952 5.573-5.99l18.895 18.896-11.562 11.562z" fill="#000000" opacity="1" data-original="#000000" class=""></path><path d="M257.457 254.235a7.5 7.5 0 0 0 7.5 7.5h71.071c4.143 0 7.5-3.358 7.5-7.5s-3.357-7.5-7.5-7.5h-71.071a7.5 7.5 0 0 0-7.5 7.5zM247.911 282.168a7.5 7.5 0 0 0 7.5 7.5h90.165c4.143 0 7.5-3.358 7.5-7.5s-3.357-7.5-7.5-7.5h-90.165a7.5 7.5 0 0 0-7.5 7.5zM345.576 302.602h-90.165c-4.143 0-7.5 3.358-7.5 7.5s3.357 7.5 7.5 7.5h90.165a7.5 7.5 0 0 0 0-15zM323.299 330.535h-45.612c-4.143 0-7.5 3.358-7.5 7.5s3.357 7.5 7.5 7.5h45.612c4.143 0 7.5-3.358 7.5-7.5s-3.357-7.5-7.5-7.5zM407.973 176.278h6.979v6.979c0 4.142 3.357 7.5 7.5 7.5s7.5-3.358 7.5-7.5v-6.979h6.979c4.143 0 7.5-3.358 7.5-7.5s-3.357-7.5-7.5-7.5h-6.979V154.3c0-4.142-3.357-7.5-7.5-7.5s-7.5 3.358-7.5 7.5v6.979h-6.979a7.5 7.5 0 1 0 0 14.999z" fill="#000000" opacity="1" data-original="#000000" class=""></path></g></svg>